<svg xmlns="http://www.w3.org/2000/svg" xmlns:xlink="http://www.w3.org/1999/xlink" width="1080" zoomAndPan="magnify" viewBox="0 0 810 809.999993" height="1080" preserveAspectRatio="xMidYMid meet" version="1.0"><defs><g/><clipPath id="07c742a791"><path d="M 405 0 C 181.324219 0 0 181.324219 0 405 C 0 628.675781 181.324219 810 405 810 C 628.675781 810 810 628.675781 810 405 C 810 181.324219 628.675781 0 405 0 Z M 405 0 " clip-rule="nonzero"/></clipPath><clipPath id="d1f162b1a7"><path d="M 16.648438 16.648438 L 792.375 16.648438 L 792.375 792.375 L 16.648438 792.375 Z M 16.648438 16.648438 " clip-rule="nonzero"/></clipPath><clipPath id="a2407ec275"><path d="M 404.511719 16.648438 C 190.300781 16.648438 16.648438 190.300781 16.648438 404.511719 C 16.648438 618.722656 190.300781 792.375 404.511719 792.375 C 618.722656 792.375 792.375 618.722656 792.375 404.511719 C 792.375 190.300781 618.722656 16.648438 404.511719 16.648438 Z M 404.511719 16.648438 " clip-rule="nonzero"/></clipPath><clipPath id="df788f500c"><path d="M 51.738281 51.738281 L 757.289062 51.738281 L 757.289062 757.289062 L 51.738281 757.289062 Z M 51.738281 51.738281 " clip-rule="nonzero"/></clipPath><clipPath id="61eced74d9"><path d="M 404.511719 51.738281 C 209.679688 51.738281 51.738281 209.679688 51.738281 404.511719 C 51.738281 599.347656 209.679688 757.289062 404.511719 757.289062 C 599.347656 757.289062 757.289062 599.347656 757.289062 404.511719 C 757.289062 209.679688 599.347656 51.738281 404.511719 51.738281 Z M 404.511719 51.738281 " clip-rule="nonzero"/></clipPath></defs><g clip-path="url(#07c742a791)"><rect x="-81" width="972" fill="#000000" y="-80.999999" height="971.999992" fill-opacity="1"/></g><g fill="#000000" fill-opacity="1"><g transform="translate(139.182491, 536.92951)"><g><path d="M 245.15625 -286.75 C 245.15625 -274.34375 242.71875 -262.671875 237.84375 -251.734375 C 232.96875 -240.796875 226.800781 -230.726562 219.34375 -221.53125 C 211.882812 -212.34375 203.734375 -204.019531 194.890625 -196.5625 C 186.046875 -189.101562 177.648438 -182.660156 169.703125 -177.234375 C 180.847656 -176.253906 191.957031 -173.570312 203.03125 -169.1875 C 214.113281 -164.800781 224.078125 -158.738281 232.921875 -151 C 241.773438 -143.269531 248.953125 -133.9375 254.453125 -123 C 259.960938 -112.0625 262.71875 -99.625 262.71875 -85.6875 C 262.71875 -74.257812 261.078125 -63.984375 257.796875 -54.859375 C 254.523438 -45.734375 250.171875 -37.582031 244.734375 -30.40625 C 239.304688 -23.226562 233.140625 -17.0625 226.234375 -11.90625 C 219.335938 -6.757812 212.335938 -2.515625 205.234375 0.828125 C 198.128906 4.179688 191.128906 6.65625 184.234375 8.25 C 177.335938 9.851562 171.242188 10.65625 165.953125 10.65625 C 152.566406 10.65625 141.453125 9.050781 132.609375 5.84375 C 123.765625 2.644531 116.726562 -1.285156 111.5 -5.953125 C 106.269531 -10.617188 102.609375 -15.53125 100.515625 -20.6875 C 98.429688 -25.84375 97.390625 -30.375 97.390625 -34.28125 C 97.390625 -40.269531 98.675781 -46.015625 101.25 -51.515625 C 103.832031 -57.023438 107.28125 -62.007812 111.59375 -66.46875 C 115.914062 -70.925781 120.929688 -74.859375 126.640625 -78.265625 C 132.359375 -81.679688 138.285156 -84.296875 144.421875 -86.109375 L 148.8125 -79.203125 C 140.03125 -74.472656 133.546875 -68.378906 129.359375 -60.921875 C 125.179688 -53.460938 123.09375 -45.972656 123.09375 -38.453125 C 123.09375 -34.273438 123.960938 -29.921875 125.703125 -25.390625 C 127.453125 -20.859375 130.101562 -16.710938 133.65625 -12.953125 C 137.207031 -9.191406 141.664062 -6.09375 147.03125 -3.65625 C 152.394531 -1.21875 158.703125 0 165.953125 0 C 176.535156 0 186.425781 -1.984375 195.625 -5.953125 C 204.820312 -9.921875 212.796875 -15.421875 219.546875 -22.453125 C 226.304688 -29.492188 231.601562 -37.753906 235.4375 -47.234375 C 239.269531 -56.710938 241.1875 -66.953125 241.1875 -77.953125 C 241.1875 -89.242188 238.851562 -99.207031 234.1875 -107.84375 C 229.519531 -116.476562 223.316406 -123.753906 215.578125 -129.671875 C 207.847656 -135.597656 198.929688 -140.09375 188.828125 -143.15625 C 178.722656 -146.226562 168.238281 -147.765625 157.375 -147.765625 C 152.914062 -147.765625 148.523438 -147.519531 144.203125 -147.03125 C 139.890625 -146.539062 135.816406 -145.910156 131.984375 -145.140625 C 128.148438 -144.378906 124.703125 -143.648438 121.640625 -142.953125 C 118.578125 -142.253906 116.207031 -141.695312 114.53125 -141.28125 L 112.4375 -143.375 L 131.671875 -173.265625 C 133.203125 -173.679688 134.941406 -174.164062 136.890625 -174.71875 C 138.566406 -175.132812 140.585938 -175.585938 142.953125 -176.078125 C 145.328125 -176.566406 147.972656 -176.953125 150.890625 -177.234375 C 157.585938 -181.273438 164.59375 -186.394531 171.90625 -192.59375 C 179.21875 -198.789062 185.90625 -205.960938 191.96875 -214.109375 C 198.03125 -222.265625 203.046875 -231.425781 207.015625 -241.59375 C 210.984375 -251.769531 212.96875 -262.847656 212.96875 -274.828125 C 212.96875 -295.035156 208.160156 -310.296875 198.546875 -320.609375 C 188.929688 -330.921875 175.207031 -336.078125 157.375 -336.078125 C 147.0625 -336.078125 136.679688 -333.878906 126.234375 -329.484375 C 115.785156 -325.097656 105.71875 -318.375 96.03125 -309.3125 C 86.351562 -300.257812 77.296875 -288.835938 68.859375 -275.046875 C 60.429688 -261.253906 53.117188 -245.019531 46.921875 -226.34375 C 40.722656 -207.675781 35.8125 -186.425781 32.1875 -162.59375 C 28.5625 -138.769531 26.75 -112.367188 26.75 -83.390625 C 26.75 -71.410156 27.269531 -60.332031 28.3125 -50.15625 C 29.363281 -39.988281 30.96875 -31.175781 33.125 -23.71875 C 35.28125 -16.269531 37.960938 -10.453125 41.171875 -6.265625 C 44.378906 -2.085938 48.140625 0 52.453125 0 C 56.773438 0 60.222656 -3.164062 62.796875 -9.5 C 65.378906 -15.84375 67.332031 -24.132812 68.65625 -34.375 C 69.976562 -44.613281 70.8125 -56.070312 71.15625 -68.75 C 71.507812 -81.4375 71.6875 -94.191406 71.6875 -107.015625 C 71.6875 -126.515625 71.40625 -144.867188 70.84375 -162.078125 C 70.289062 -179.285156 69.703125 -194.644531 69.078125 -208.15625 C 68.453125 -221.675781 67.859375 -232.960938 67.296875 -242.015625 C 66.742188 -251.078125 66.394531 -257.140625 66.25 -260.203125 L 90.5 -267.515625 C 91.195312 -266.398438 92.171875 -263.054688 93.421875 -257.484375 C 94.671875 -251.910156 95.921875 -244.5625 97.171875 -235.4375 C 98.429688 -226.3125 99.515625 -215.722656 100.421875 -203.671875 C 101.328125 -191.617188 101.78125 -178.625 101.78125 -164.6875 C 101.78125 -141.144531 101.117188 -120.488281 99.796875 -102.71875 C 98.472656 -84.957031 96.625 -69.5625 94.25 -56.53125 C 91.882812 -43.507812 89.132812 -32.675781 86 -24.03125 C 82.863281 -15.394531 79.445312 -8.53125 75.75 -3.4375 C 72.0625 1.644531 68.234375 5.265625 64.265625 7.421875 C 60.296875 9.578125 56.359375 10.65625 52.453125 10.65625 C 43.953125 10.65625 36.320312 7.765625 29.5625 1.984375 C 22.8125 -3.796875 17.066406 -11.457031 12.328125 -21 C 7.585938 -30.550781 3.960938 -41.488281 1.453125 -53.8125 C -1.046875 -66.144531 -2.296875 -78.859375 -2.296875 -91.953125 C -2.296875 -110.765625 -0.554688 -130.203125 2.921875 -150.265625 C 6.410156 -170.328125 11.566406 -189.9375 18.390625 -209.09375 C 25.222656 -228.257812 33.65625 -246.445312 43.6875 -263.65625 C 53.71875 -280.863281 65.28125 -295.910156 78.375 -308.796875 C 91.46875 -321.679688 106.0625 -331.921875 122.15625 -339.515625 C 138.25 -347.109375 155.703125 -350.90625 174.515625 -350.90625 C 185.242188 -350.90625 194.960938 -349.476562 203.671875 -346.625 C 212.378906 -343.769531 219.796875 -339.585938 225.921875 -334.078125 C 232.054688 -328.578125 236.796875 -321.851562 240.140625 -313.90625 C 243.484375 -305.96875 245.15625 -296.914062 245.15625 -286.75 Z M 245.15625 -286.75 "/></g></g></g><g fill="#000000" fill-opacity="1"><g transform="translate(432.188278, 536.92951)"><g><path d="M 243.90625 -83.390625 C 240.976562 -77.679688 237.597656 -72.28125 233.765625 -67.1875 C 229.929688 -62.101562 225.925781 -57.4375 221.75 -53.1875 C 217.570312 -48.9375 213.390625 -45.035156 209.203125 -41.484375 C 205.023438 -37.929688 201.195312 -34.832031 197.71875 -32.1875 L 197.71875 -8.15625 C 197.71875 10.101562 196.285156 26.335938 193.421875 40.546875 C 190.566406 54.753906 186.457031 66.804688 181.09375 76.703125 C 175.726562 86.597656 169.316406 94.125 161.859375 99.28125 C 154.410156 104.4375 146.085938 107.015625 136.890625 107.015625 C 131.878906 107.015625 127.28125 106.003906 123.09375 103.984375 C 118.914062 101.960938 115.328125 99.207031 112.328125 95.71875 C 109.335938 92.238281 107.003906 88.164062 105.328125 83.5 C 103.660156 78.832031 102.828125 73.847656 102.828125 68.546875 C 102.828125 58.378906 104.53125 49.007812 107.9375 40.4375 C 111.351562 31.875 115.988281 23.796875 121.84375 16.203125 C 127.695312 8.609375 134.453125 1.363281 142.109375 -5.53125 C 149.773438 -12.4375 157.929688 -19.300781 166.578125 -26.125 C 166.710938 -33.789062 166.953125 -41.382812 167.296875 -48.90625 C 167.648438 -56.425781 168 -63.53125 168.34375 -70.21875 C 168.695312 -76.90625 169.046875 -82.96875 169.390625 -88.40625 C 169.742188 -93.84375 170.054688 -98.300781 170.328125 -101.78125 C 165.597656 -92.164062 160.269531 -82.722656 154.34375 -73.453125 C 148.425781 -64.191406 142.125 -55.378906 135.4375 -47.015625 C 128.75 -38.660156 121.742188 -30.960938 114.421875 -23.921875 C 107.109375 -16.890625 99.757812 -10.796875 92.375 -5.640625 C 84.988281 -0.484375 77.640625 3.519531 70.328125 6.375 C 63.015625 9.226562 56.015625 10.65625 49.328125 10.65625 C 41.796875 10.65625 34.648438 9.15625 27.890625 6.15625 C 21.140625 3.164062 15.222656 -1.53125 10.140625 -7.9375 C 5.054688 -14.351562 1.015625 -22.578125 -1.984375 -32.609375 C -4.984375 -42.640625 -6.484375 -54.617188 -6.484375 -68.546875 C -6.484375 -84.148438 -4.738281 -100.171875 -1.25 -116.609375 C 2.226562 -133.054688 7.03125 -149.359375 13.15625 -165.515625 C 19.289062 -181.679688 26.609375 -197.5 35.109375 -212.96875 C 43.609375 -228.4375 52.875 -243.03125 62.90625 -256.75 C 72.9375 -270.476562 83.59375 -283.085938 94.875 -294.578125 C 106.164062 -306.078125 117.660156 -316.003906 129.359375 -324.359375 C 141.066406 -332.722656 152.804688 -339.238281 164.578125 -343.90625 C 176.359375 -348.570312 187.820312 -350.90625 198.96875 -350.90625 C 210.675781 -350.90625 220.046875 -347.941406 227.078125 -342.015625 C 234.109375 -336.097656 237.625 -327.707031 237.625 -316.84375 C 237.625 -310.988281 236.40625 -305.304688 233.96875 -299.796875 C 231.53125 -294.296875 228.253906 -289.003906 224.140625 -283.921875 C 220.035156 -278.835938 215.40625 -274.03125 210.25 -269.5 C 205.09375 -264.976562 199.832031 -260.832031 194.46875 -257.0625 C 189.101562 -253.300781 183.804688 -249.957031 178.578125 -247.03125 C 173.359375 -244.113281 168.726562 -241.675781 164.6875 -239.71875 L 158.421875 -248.296875 C 163.710938 -250.941406 169.492188 -254.703125 175.765625 -259.578125 C 182.035156 -264.453125 187.882812 -269.953125 193.3125 -276.078125 C 198.75 -282.210938 203.28125 -288.832031 206.90625 -295.9375 C 210.53125 -303.050781 212.34375 -310.160156 212.34375 -317.265625 C 212.34375 -323.253906 210.773438 -328.234375 207.640625 -332.203125 C 204.503906 -336.171875 199.523438 -338.15625 192.703125 -338.15625 C 182.109375 -338.15625 170.785156 -334.878906 158.734375 -328.328125 C 146.679688 -321.785156 134.695312 -312.660156 122.78125 -300.953125 C 110.875 -289.253906 99.484375 -275.285156 88.609375 -259.046875 C 77.742188 -242.816406 68.128906 -225.019531 59.765625 -205.65625 C 51.410156 -186.289062 44.722656 -165.738281 39.703125 -144 C 34.691406 -122.257812 32.1875 -99.96875 32.1875 -77.125 C 32.1875 -67.09375 32.914062 -58.101562 34.375 -50.15625 C 35.84375 -42.21875 37.929688 -35.492188 40.640625 -29.984375 C 43.359375 -24.484375 46.703125 -20.234375 50.671875 -17.234375 C 54.648438 -14.242188 59.144531 -12.75 64.15625 -12.75 C 70.289062 -12.75 76.976562 -14.628906 84.21875 -18.390625 C 91.46875 -22.148438 98.75 -27.234375 106.0625 -33.640625 C 113.382812 -40.054688 120.597656 -47.476562 127.703125 -55.90625 C 134.804688 -64.332031 141.351562 -73.210938 147.34375 -82.546875 C 153.332031 -91.890625 158.554688 -101.367188 163.015625 -110.984375 C 167.472656 -120.597656 170.75 -129.722656 172.84375 -138.359375 C 173.675781 -148.523438 174.507812 -157.820312 175.34375 -166.25 C 176.1875 -174.6875 176.988281 -182.109375 177.75 -188.515625 C 178.519531 -194.921875 179.253906 -200.109375 179.953125 -204.078125 C 180.648438 -208.054688 181.273438 -210.671875 181.828125 -211.921875 C 182.941406 -214.015625 184.539062 -216.101562 186.625 -218.1875 C 188.71875 -220.28125 190.984375 -222.128906 193.421875 -223.734375 C 195.867188 -225.335938 198.273438 -226.625 200.640625 -227.59375 C 203.003906 -228.570312 205.023438 -229.0625 206.703125 -229.0625 C 208.929688 -229.0625 210.425781 -228.15625 211.1875 -226.34375 C 211.957031 -224.53125 212.34375 -222.582031 212.34375 -220.5 C 212.34375 -214.363281 211.296875 -206.207031 209.203125 -196.03125 C 207.117188 -185.863281 204.472656 -174.023438 201.265625 -160.515625 C 199.867188 -154.660156 198.859375 -146.957031 198.234375 -137.40625 C 197.609375 -127.863281 197.191406 -117.691406 196.984375 -106.890625 C 196.773438 -96.097656 196.671875 -85.234375 196.671875 -74.296875 C 196.671875 -63.359375 196.597656 -53.570312 196.453125 -44.9375 C 206.765625 -52.457031 215.019531 -60.222656 221.21875 -68.234375 C 227.425781 -76.242188 232.128906 -83.457031 235.328125 -89.875 L 237.625 -94.265625 L 246.203125 -87.78125 Z M 166.15625 -10.65625 C 159.601562 -5.5 153.609375 -0.0664062 148.171875 5.640625 C 142.742188 11.359375 138.113281 17.488281 134.28125 24.03125 C 130.445312 30.582031 127.453125 37.722656 125.296875 45.453125 C 123.140625 53.191406 122.0625 61.585938 122.0625 70.640625 C 122.0625 79.273438 123.453125 85.71875 126.234375 89.96875 C 129.023438 94.21875 132.578125 96.34375 136.890625 96.34375 C 141.210938 96.34375 145.148438 94.492188 148.703125 90.796875 C 152.253906 87.109375 155.316406 81.050781 157.890625 72.625 C 160.472656 64.195312 162.492188 53.15625 163.953125 39.5 C 165.421875 25.84375 166.15625 9.125 166.15625 -10.65625 Z M 166.15625 -10.65625 "/></g></g></g><g clip-path="url(#d1f162b1a7)"><g clip-path="url(#a2407ec275)"><path fill="#ffd700" d="M 16.648438 16.648438 L 792.375 16.648438 L 792.375 792.375 L 16.648438 792.375 Z M 16.648438 16.648438 " fill-opacity="1" fill-rule="nonzero"/></g></g><g clip-path="url(#df788f500c)"><g clip-path="url(#61eced74d9)"><path fill="#000000" d="M 51.738281 51.738281 L 757.289062 51.738281 L 757.289062 757.289062 L 51.738281 757.289062 Z M 51.738281 51.738281 " fill-opacity="1" fill-rule="nonzero"/></g></g><g fill="#ffd700" fill-opacity="1"><g transform="translate(128.872819, 575.948711)"><g><path d="M 254.671875 -297.890625 C 254.671875 -285.003906 252.140625 -272.878906 247.078125 -261.515625 C 242.015625 -250.148438 235.609375 -239.691406 227.859375 -230.140625 C 220.117188 -220.585938 211.648438 -211.9375 202.453125 -204.1875 C 193.265625 -196.445312 184.546875 -189.753906 176.296875 -184.109375 C 187.878906 -183.097656 199.421875 -180.3125 210.921875 -175.75 C 222.429688 -171.195312 232.78125 -164.898438 241.96875 -156.859375 C 251.164062 -148.828125 258.625 -139.128906 264.34375 -127.765625 C 270.0625 -116.410156 272.921875 -103.492188 272.921875 -89.015625 C 272.921875 -77.148438 271.21875 -66.472656 267.8125 -56.984375 C 264.414062 -47.503906 259.894531 -39.035156 254.25 -31.578125 C 248.601562 -24.128906 242.195312 -17.726562 235.03125 -12.375 C 227.863281 -7.019531 220.585938 -2.609375 213.203125 0.859375 C 205.828125 4.335938 198.554688 6.910156 191.390625 8.578125 C 184.222656 10.242188 177.890625 11.078125 172.390625 11.078125 C 158.492188 11.078125 146.945312 9.410156 137.75 6.078125 C 128.5625 2.742188 121.253906 -1.34375 115.828125 -6.1875 C 110.398438 -11.039062 106.597656 -16.144531 104.421875 -21.5 C 102.253906 -26.851562 101.171875 -31.554688 101.171875 -35.609375 C 101.171875 -41.828125 102.507812 -47.796875 105.1875 -53.515625 C 107.863281 -59.234375 111.445312 -64.40625 115.9375 -69.03125 C 120.425781 -73.664062 125.632812 -77.753906 131.5625 -81.296875 C 137.5 -84.847656 143.65625 -87.566406 150.03125 -89.453125 L 154.59375 -82.28125 C 145.46875 -77.363281 138.734375 -71.03125 134.390625 -63.28125 C 130.046875 -55.539062 127.875 -47.765625 127.875 -39.953125 C 127.875 -35.609375 128.78125 -31.082031 130.59375 -26.375 C 132.40625 -21.675781 135.15625 -17.367188 138.84375 -13.453125 C 142.539062 -9.546875 147.171875 -6.328125 152.734375 -3.796875 C 158.304688 -1.265625 164.859375 0 172.390625 0 C 183.390625 0 193.664062 -2.0625 203.21875 -6.1875 C 212.769531 -10.3125 221.054688 -16.023438 228.078125 -23.328125 C 235.097656 -30.640625 240.597656 -39.21875 244.578125 -49.0625 C 248.554688 -58.90625 250.546875 -69.546875 250.546875 -80.984375 C 250.546875 -92.710938 248.117188 -103.0625 243.265625 -112.03125 C 238.421875 -121.007812 231.984375 -128.570312 223.953125 -134.71875 C 215.921875 -140.875 206.65625 -145.539062 196.15625 -148.71875 C 185.664062 -151.90625 174.773438 -153.5 163.484375 -153.5 C 158.859375 -153.5 154.300781 -153.242188 149.8125 -152.734375 C 145.320312 -152.234375 141.085938 -151.582031 137.109375 -150.78125 C 133.128906 -149.988281 129.546875 -149.226562 126.359375 -148.5 C 123.171875 -147.78125 120.710938 -147.203125 118.984375 -146.765625 L 116.8125 -148.9375 L 136.78125 -179.984375 C 138.375 -180.421875 140.1875 -180.929688 142.21875 -181.515625 C 143.945312 -181.941406 146.039062 -182.410156 148.5 -182.921875 C 150.96875 -183.429688 153.722656 -183.828125 156.765625 -184.109375 C 163.710938 -188.304688 170.984375 -193.625 178.578125 -200.0625 C 186.179688 -206.507812 193.128906 -213.96875 199.421875 -222.4375 C 205.710938 -230.90625 210.921875 -240.421875 215.046875 -250.984375 C 219.179688 -261.554688 221.25 -273.066406 221.25 -285.515625 C 221.25 -306.492188 216.253906 -322.335938 206.265625 -333.046875 C 196.273438 -343.765625 182.015625 -349.125 163.484375 -349.125 C 152.773438 -349.125 141.992188 -346.84375 131.140625 -342.28125 C 120.285156 -337.726562 109.828125 -330.742188 99.765625 -321.328125 C 89.703125 -311.921875 80.289062 -300.050781 71.53125 -285.71875 C 62.78125 -271.394531 55.179688 -254.535156 48.734375 -235.140625 C 42.296875 -215.742188 37.195312 -193.671875 33.4375 -168.921875 C 29.675781 -144.171875 27.796875 -116.738281 27.796875 -86.625 C 27.796875 -74.175781 28.335938 -62.671875 29.421875 -52.109375 C 30.503906 -41.546875 32.164062 -32.390625 34.40625 -24.640625 C 36.65625 -16.898438 39.441406 -10.859375 42.765625 -6.515625 C 46.097656 -2.171875 50.007812 0 54.5 0 C 58.988281 0 62.570312 -3.289062 65.25 -9.875 C 67.925781 -16.457031 69.953125 -25.066406 71.328125 -35.703125 C 72.703125 -46.347656 73.566406 -58.253906 73.921875 -71.421875 C 74.285156 -84.597656 74.46875 -97.847656 74.46875 -111.171875 C 74.46875 -131.429688 74.175781 -150.5 73.59375 -168.375 C 73.019531 -186.25 72.40625 -202.207031 71.75 -216.25 C 71.101562 -230.289062 70.488281 -242.015625 69.90625 -251.421875 C 69.332031 -260.828125 68.972656 -267.125 68.828125 -270.3125 L 94.015625 -277.90625 C 94.734375 -276.75 95.742188 -273.273438 97.046875 -267.484375 C 98.347656 -261.691406 99.648438 -254.054688 100.953125 -244.578125 C 102.253906 -235.097656 103.375 -224.097656 104.3125 -211.578125 C 105.257812 -199.054688 105.734375 -185.5625 105.734375 -171.09375 C 105.734375 -146.625 105.046875 -125.160156 103.671875 -106.703125 C 102.296875 -88.253906 100.378906 -72.265625 97.921875 -58.734375 C 95.460938 -45.203125 92.601562 -33.945312 89.34375 -24.96875 C 86.082031 -15.988281 82.535156 -8.859375 78.703125 -3.578125 C 74.867188 1.703125 70.890625 5.460938 66.765625 7.703125 C 62.640625 9.953125 58.550781 11.078125 54.5 11.078125 C 45.664062 11.078125 37.738281 8.070312 30.71875 2.0625 C 23.695312 -3.945312 17.722656 -11.90625 12.796875 -21.8125 C 7.878906 -31.726562 4.117188 -43.09375 1.515625 -55.90625 C -1.085938 -68.71875 -2.390625 -81.925781 -2.390625 -95.53125 C -2.390625 -115.070312 -0.582031 -135.265625 3.03125 -156.109375 C 6.65625 -176.953125 12.015625 -197.320312 19.109375 -217.21875 C 26.203125 -237.125 34.957031 -256.015625 45.375 -273.890625 C 55.800781 -291.765625 67.816406 -307.394531 81.421875 -320.78125 C 95.023438 -334.175781 110.1875 -344.816406 126.90625 -352.703125 C 143.625 -360.597656 161.753906 -364.546875 181.296875 -364.546875 C 192.441406 -364.546875 202.535156 -363.0625 211.578125 -360.09375 C 220.628906 -357.125 228.335938 -352.78125 234.703125 -347.0625 C 241.066406 -341.34375 245.984375 -334.359375 249.453125 -326.109375 C 252.929688 -317.859375 254.671875 -308.453125 254.671875 -297.890625 Z M 254.671875 -297.890625 "/></g></g><g transform="translate(433.275469, 575.948711)"><g><path d="M 253.375 -86.625 C 250.332031 -80.695312 246.820312 -75.085938 242.84375 -69.796875 C 238.863281 -64.515625 234.703125 -59.664062 230.359375 -55.25 C 226.015625 -50.84375 221.671875 -46.789062 217.328125 -43.09375 C 212.992188 -39.40625 209.015625 -36.1875 205.390625 -33.4375 L 205.390625 -8.46875 C 205.390625 10.488281 203.90625 27.347656 200.9375 42.109375 C 197.96875 56.878906 193.695312 69.398438 188.125 79.671875 C 182.550781 89.953125 175.894531 97.769531 168.15625 103.125 C 160.414062 108.488281 151.769531 111.171875 142.21875 111.171875 C 137 111.171875 132.21875 110.117188 127.875 108.015625 C 123.539062 105.921875 119.816406 103.0625 116.703125 99.4375 C 113.585938 95.820312 111.160156 91.585938 109.421875 86.734375 C 107.691406 81.890625 106.828125 76.71875 106.828125 71.21875 C 106.828125 60.644531 108.597656 50.90625 112.140625 42 C 115.679688 33.101562 120.492188 24.710938 126.578125 16.828125 C 132.660156 8.941406 139.679688 1.414062 147.640625 -5.75 C 155.597656 -12.914062 164.066406 -20.046875 173.046875 -27.140625 C 173.191406 -35.097656 173.441406 -42.984375 173.796875 -50.796875 C 174.160156 -58.617188 174.523438 -66.003906 174.890625 -72.953125 C 175.253906 -79.898438 175.613281 -86.195312 175.96875 -91.84375 C 176.332031 -97.488281 176.660156 -102.117188 176.953125 -105.734375 C 172.023438 -95.742188 166.484375 -85.9375 160.328125 -76.3125 C 154.179688 -66.6875 147.632812 -57.53125 140.6875 -48.84375 C 133.738281 -40.164062 126.460938 -32.171875 118.859375 -24.859375 C 111.265625 -17.546875 103.628906 -11.210938 95.953125 -5.859375 C 88.285156 -0.503906 80.648438 3.65625 73.046875 6.625 C 65.453125 9.59375 58.179688 11.078125 51.234375 11.078125 C 43.421875 11.078125 36.003906 9.519531 28.984375 6.40625 C 21.960938 3.289062 15.8125 -1.59375 10.53125 -8.25 C 5.25 -14.90625 1.050781 -23.441406 -2.0625 -33.859375 C -5.175781 -44.285156 -6.734375 -56.738281 -6.734375 -71.21875 C -6.734375 -87.425781 -4.921875 -104.066406 -1.296875 -121.140625 C 2.316406 -138.222656 7.304688 -155.160156 13.671875 -171.953125 C 20.046875 -188.742188 27.644531 -205.171875 36.46875 -221.234375 C 45.300781 -237.304688 54.925781 -252.46875 65.34375 -266.71875 C 75.769531 -280.976562 86.84375 -294.078125 98.5625 -306.015625 C 110.289062 -317.960938 122.234375 -328.28125 134.390625 -336.96875 C 146.554688 -345.65625 158.753906 -352.421875 170.984375 -357.265625 C 183.210938 -362.117188 195.117188 -364.546875 206.703125 -364.546875 C 218.859375 -364.546875 228.585938 -361.46875 235.890625 -355.3125 C 243.203125 -349.15625 246.859375 -340.4375 246.859375 -329.15625 C 246.859375 -323.070312 245.59375 -317.171875 243.0625 -311.453125 C 240.53125 -305.734375 237.128906 -300.234375 232.859375 -294.953125 C 228.585938 -289.671875 223.773438 -284.675781 218.421875 -279.96875 C 213.066406 -275.269531 207.601562 -270.960938 202.03125 -267.046875 C 196.457031 -263.140625 190.957031 -259.664062 185.53125 -256.625 C 180.101562 -253.59375 175.289062 -251.0625 171.09375 -249.03125 L 164.578125 -257.9375 C 170.078125 -260.6875 176.082031 -264.59375 182.59375 -269.65625 C 189.101562 -274.726562 195.179688 -280.445312 200.828125 -286.8125 C 206.472656 -293.175781 211.175781 -300.050781 214.9375 -307.4375 C 218.707031 -314.820312 220.59375 -322.203125 220.59375 -329.578125 C 220.59375 -335.804688 218.960938 -340.984375 215.703125 -345.109375 C 212.453125 -349.234375 207.28125 -351.296875 200.1875 -351.296875 C 189.1875 -351.296875 177.425781 -347.894531 164.90625 -341.09375 C 152.382812 -334.289062 139.9375 -324.804688 127.5625 -312.640625 C 115.1875 -300.484375 103.351562 -285.972656 92.0625 -269.109375 C 80.769531 -252.253906 70.78125 -233.765625 62.09375 -213.640625 C 53.40625 -193.523438 46.457031 -172.175781 41.25 -149.59375 C 36.039062 -127.007812 33.4375 -103.847656 33.4375 -80.109375 C 33.4375 -69.691406 34.195312 -60.359375 35.71875 -52.109375 C 37.238281 -43.859375 39.410156 -36.875 42.234375 -31.15625 C 45.054688 -25.4375 48.53125 -21.019531 52.65625 -17.90625 C 56.78125 -14.800781 61.445312 -13.25 66.65625 -13.25 C 73.019531 -13.25 79.960938 -15.203125 87.484375 -19.109375 C 95.015625 -23.015625 102.578125 -28.296875 110.171875 -34.953125 C 117.773438 -41.609375 125.269531 -49.316406 132.65625 -58.078125 C 140.039062 -66.835938 146.84375 -76.066406 153.0625 -85.765625 C 159.289062 -95.460938 164.71875 -105.300781 169.34375 -115.28125 C 173.976562 -125.269531 177.382812 -134.753906 179.5625 -143.734375 C 180.425781 -154.296875 181.289062 -163.957031 182.15625 -172.71875 C 183.03125 -181.476562 183.863281 -189.1875 184.65625 -195.84375 C 185.457031 -202.5 186.21875 -207.890625 186.9375 -212.015625 C 187.664062 -216.140625 188.316406 -218.851562 188.890625 -220.15625 C 190.046875 -222.320312 191.707031 -224.488281 193.875 -226.65625 C 196.050781 -228.832031 198.40625 -230.753906 200.9375 -232.421875 C 203.46875 -234.085938 205.960938 -235.425781 208.421875 -236.4375 C 210.890625 -237.445312 212.992188 -237.953125 214.734375 -237.953125 C 217.046875 -237.953125 218.597656 -237.007812 219.390625 -235.125 C 220.191406 -233.25 220.59375 -231.226562 220.59375 -229.0625 C 220.59375 -222.6875 219.503906 -214.21875 217.328125 -203.65625 C 215.160156 -193.09375 212.410156 -180.789062 209.078125 -166.75 C 207.628906 -160.664062 206.578125 -152.664062 205.921875 -142.75 C 205.273438 -132.832031 204.84375 -122.265625 204.625 -111.046875 C 204.414062 -99.835938 204.3125 -88.550781 204.3125 -77.1875 C 204.3125 -65.820312 204.238281 -55.65625 204.09375 -46.6875 C 214.800781 -54.5 223.375 -62.566406 229.8125 -70.890625 C 236.257812 -79.210938 241.144531 -86.703125 244.46875 -93.359375 L 246.859375 -97.921875 L 255.765625 -91.1875 Z M 172.609375 -11.078125 C 165.804688 -5.722656 159.582031 -0.078125 153.9375 5.859375 C 148.289062 11.796875 143.476562 18.164062 139.5 24.96875 C 135.519531 31.769531 132.40625 39.1875 130.15625 47.21875 C 127.914062 55.25 126.796875 63.972656 126.796875 73.390625 C 126.796875 82.359375 128.242188 89.050781 131.140625 93.46875 C 134.035156 97.882812 137.726562 100.09375 142.21875 100.09375 C 146.695312 100.09375 150.78125 98.171875 154.46875 94.328125 C 158.164062 90.492188 161.351562 84.195312 164.03125 75.4375 C 166.707031 66.6875 168.804688 55.21875 170.328125 41.03125 C 171.847656 26.84375 172.609375 9.472656 172.609375 -11.078125 Z M 172.609375 -11.078125 "/></g></g></g></svg>