<svg xmlns="http://www.w3.org/2000/svg" xmlns:xlink="http://www.w3.org/1999/xlink" width="500" zoomAndPan="magnify" viewBox="0 0 375 374.999991" height="500" preserveAspectRatio="xMidYMid meet" version="1.0"><defs><g/><clipPath id="3ee056b7b4"><path d="M 187.5 0 C 83.945312 0 0 83.945312 0 187.5 C 0 291.054688 83.945312 375 187.5 375 C 291.054688 375 375 291.054688 375 187.5 C 375 83.945312 291.054688 0 187.5 0 Z M 187.5 0 " clip-rule="nonzero"/></clipPath><clipPath id="555340876a"><path d="M 16.960938 16.960938 L 358.039062 16.960938 L 358.039062 358.039062 L 16.960938 358.039062 Z M 16.960938 16.960938 " clip-rule="nonzero"/></clipPath><clipPath id="be97bf3747"><path d="M 187.5 16.960938 C 93.3125 16.960938 16.960938 93.3125 16.960938 187.5 C 16.960938 281.683594 93.3125 358.039062 187.5 358.039062 C 281.683594 358.039062 358.039062 281.683594 358.039062 187.5 C 358.039062 93.3125 281.683594 16.960938 187.5 16.960938 Z M 187.5 16.960938 " clip-rule="nonzero"/></clipPath></defs><g fill="#000000" fill-opacity="1"><g transform="translate(59.23465, 251.512432)"><g><path d="M 118.515625 -138.625 C 118.515625 -132.625 117.332031 -126.976562 114.96875 -121.6875 C 112.613281 -116.40625 109.632812 -111.539062 106.03125 -107.09375 C 102.425781 -102.65625 98.484375 -98.632812 94.203125 -95.03125 C 89.929688 -91.425781 85.878906 -88.304688 82.046875 -85.671875 C 87.429688 -85.203125 92.800781 -83.90625 98.15625 -81.78125 C 103.507812 -79.664062 108.320312 -76.738281 112.59375 -73 C 116.875 -69.257812 120.34375 -64.742188 123 -59.453125 C 125.664062 -54.171875 127 -48.160156 127 -41.421875 C 127 -35.898438 126.207031 -30.929688 124.625 -26.515625 C 123.039062 -22.109375 120.9375 -18.171875 118.3125 -14.703125 C 115.6875 -11.234375 112.707031 -8.25 109.375 -5.75 C 106.039062 -3.257812 102.65625 -1.207031 99.21875 0.40625 C 95.78125 2.019531 92.394531 3.210938 89.0625 3.984375 C 85.726562 4.765625 82.78125 5.15625 80.21875 5.15625 C 73.75 5.15625 68.375 4.378906 64.09375 2.828125 C 59.820312 1.273438 56.421875 -0.625 53.890625 -2.875 C 51.367188 -5.132812 49.601562 -7.507812 48.59375 -10 C 47.582031 -12.488281 47.078125 -14.675781 47.078125 -16.5625 C 47.078125 -19.46875 47.703125 -22.25 48.953125 -24.90625 C 50.203125 -27.5625 51.867188 -29.96875 53.953125 -32.125 C 56.035156 -34.28125 58.457031 -36.179688 61.21875 -37.828125 C 63.988281 -39.484375 66.851562 -40.75 69.8125 -41.625 L 71.9375 -38.296875 C 67.695312 -36.003906 64.566406 -33.054688 62.546875 -29.453125 C 60.523438 -25.847656 59.515625 -22.226562 59.515625 -18.59375 C 59.515625 -16.570312 59.929688 -14.46875 60.765625 -12.28125 C 61.609375 -10.09375 62.890625 -8.085938 64.609375 -6.265625 C 66.328125 -4.441406 68.484375 -2.941406 71.078125 -1.765625 C 73.671875 -0.585938 76.71875 0 80.21875 0 C 85.34375 0 90.125 -0.957031 94.5625 -2.875 C 99.007812 -4.800781 102.863281 -7.460938 106.125 -10.859375 C 109.394531 -14.265625 111.957031 -18.253906 113.8125 -22.828125 C 115.664062 -27.410156 116.59375 -32.363281 116.59375 -37.6875 C 116.59375 -43.144531 115.460938 -47.960938 113.203125 -52.140625 C 110.953125 -56.316406 107.957031 -59.832031 104.21875 -62.6875 C 100.476562 -65.550781 96.164062 -67.722656 91.28125 -69.203125 C 86.40625 -70.691406 81.335938 -71.4375 76.078125 -71.4375 C 73.921875 -71.4375 71.796875 -71.316406 69.703125 -71.078125 C 67.617188 -70.835938 65.648438 -70.53125 63.796875 -70.15625 C 61.953125 -69.789062 60.285156 -69.441406 58.796875 -69.109375 C 57.316406 -68.773438 56.175781 -68.503906 55.375 -68.296875 L 54.359375 -69.3125 L 63.65625 -83.765625 C 64.394531 -83.960938 65.234375 -84.195312 66.171875 -84.46875 C 66.984375 -84.664062 67.960938 -84.878906 69.109375 -85.109375 C 70.253906 -85.347656 71.535156 -85.535156 72.953125 -85.671875 C 76.179688 -87.628906 79.5625 -90.101562 83.09375 -93.09375 C 86.632812 -96.09375 89.867188 -99.5625 92.796875 -103.5 C 95.734375 -107.445312 98.160156 -111.878906 100.078125 -116.796875 C 101.992188 -121.710938 102.953125 -127.066406 102.953125 -132.859375 C 102.953125 -142.628906 100.628906 -150.003906 95.984375 -154.984375 C 91.335938 -159.972656 84.703125 -162.46875 76.078125 -162.46875 C 71.097656 -162.46875 66.082031 -161.40625 61.03125 -159.28125 C 55.976562 -157.15625 51.109375 -153.90625 46.421875 -149.53125 C 41.742188 -145.15625 37.363281 -139.628906 33.28125 -132.953125 C 29.207031 -126.285156 25.671875 -118.441406 22.671875 -109.421875 C 19.679688 -100.398438 17.3125 -90.128906 15.5625 -78.609375 C 13.8125 -67.085938 12.9375 -54.320312 12.9375 -40.3125 C 12.9375 -34.519531 13.1875 -29.164062 13.6875 -24.25 C 14.195312 -19.332031 14.972656 -15.070312 16.015625 -11.46875 C 17.054688 -7.863281 18.351562 -5.050781 19.90625 -3.03125 C 21.457031 -1.007812 23.273438 0 25.359375 0 C 27.441406 0 29.109375 -1.53125 30.359375 -4.59375 C 31.609375 -7.65625 32.550781 -11.660156 33.1875 -16.609375 C 33.832031 -21.566406 34.238281 -27.109375 34.40625 -33.234375 C 34.570312 -39.367188 34.65625 -45.535156 34.65625 -51.734375 C 34.65625 -61.160156 34.519531 -70.03125 34.25 -78.34375 C 33.976562 -86.664062 33.691406 -94.09375 33.390625 -100.625 C 33.085938 -107.164062 32.800781 -112.625 32.53125 -117 C 32.257812 -121.375 32.09375 -124.304688 32.03125 -125.796875 L 43.75 -129.328125 C 44.082031 -128.785156 44.550781 -127.164062 45.15625 -124.46875 C 45.769531 -121.78125 46.378906 -118.226562 46.984375 -113.8125 C 47.585938 -109.40625 48.109375 -104.285156 48.546875 -98.453125 C 48.984375 -92.628906 49.203125 -86.347656 49.203125 -79.609375 C 49.203125 -68.234375 48.878906 -58.25 48.234375 -49.65625 C 47.597656 -41.070312 46.707031 -33.628906 45.5625 -27.328125 C 44.414062 -21.035156 43.082031 -15.800781 41.5625 -11.625 C 40.050781 -7.445312 38.40625 -4.128906 36.625 -1.671875 C 34.84375 0.785156 32.988281 2.535156 31.0625 3.578125 C 29.144531 4.628906 27.242188 5.15625 25.359375 5.15625 C 21.253906 5.15625 17.566406 3.753906 14.296875 0.953125 C 11.023438 -1.835938 8.242188 -5.539062 5.953125 -10.15625 C 3.671875 -14.769531 1.921875 -20.054688 0.703125 -26.015625 C -0.503906 -31.972656 -1.109375 -38.117188 -1.109375 -44.453125 C -1.109375 -53.546875 -0.269531 -62.941406 1.40625 -72.640625 C 3.09375 -82.335938 5.585938 -91.816406 8.890625 -101.078125 C 12.191406 -110.347656 16.265625 -119.140625 21.109375 -127.453125 C 25.960938 -135.773438 31.554688 -143.050781 37.890625 -149.28125 C 44.222656 -155.507812 51.273438 -160.457031 59.046875 -164.125 C 66.828125 -167.800781 75.265625 -169.640625 84.359375 -169.640625 C 89.546875 -169.640625 94.242188 -168.945312 98.453125 -167.5625 C 102.671875 -166.1875 106.257812 -164.164062 109.21875 -161.5 C 112.1875 -158.84375 114.476562 -155.59375 116.09375 -151.75 C 117.707031 -147.914062 118.515625 -143.539062 118.515625 -138.625 Z M 118.515625 -138.625 "/></g></g></g><g fill="#000000" fill-opacity="1"><g transform="translate(200.878721, 251.512432)"><g><path d="M 117.90625 -40.3125 C 116.488281 -37.550781 114.851562 -34.941406 113 -32.484375 C 111.15625 -30.023438 109.222656 -27.765625 107.203125 -25.703125 C 105.179688 -23.648438 103.160156 -21.765625 101.140625 -20.046875 C 99.117188 -18.335938 97.265625 -16.84375 95.578125 -15.5625 L 95.578125 -3.9375 C 95.578125 4.882812 94.882812 12.726562 93.5 19.59375 C 92.125 26.46875 90.140625 32.296875 87.546875 37.078125 C 84.953125 41.859375 81.851562 45.492188 78.25 47.984375 C 74.644531 50.484375 70.617188 51.734375 66.171875 51.734375 C 63.753906 51.734375 61.535156 51.242188 59.515625 50.265625 C 57.492188 49.285156 55.757812 47.953125 54.3125 46.265625 C 52.863281 44.585938 51.734375 42.617188 50.921875 40.359375 C 50.109375 38.109375 49.703125 35.703125 49.703125 33.140625 C 49.703125 28.222656 50.523438 23.691406 52.171875 19.546875 C 53.828125 15.410156 56.066406 11.503906 58.890625 7.828125 C 61.722656 4.160156 64.992188 0.660156 68.703125 -2.671875 C 72.410156 -6.003906 76.351562 -9.320312 80.53125 -12.625 C 80.59375 -16.332031 80.707031 -20.003906 80.875 -23.640625 C 81.039062 -27.273438 81.207031 -30.707031 81.375 -33.9375 C 81.550781 -37.175781 81.722656 -40.109375 81.890625 -42.734375 C 82.054688 -45.359375 82.207031 -47.515625 82.34375 -49.203125 C 80.050781 -44.554688 77.472656 -39.992188 74.609375 -35.515625 C 71.753906 -31.035156 68.707031 -26.773438 65.46875 -22.734375 C 62.238281 -18.691406 58.851562 -14.96875 55.3125 -11.5625 C 51.78125 -8.164062 48.226562 -5.21875 44.65625 -2.71875 C 41.082031 -0.226562 37.523438 1.703125 33.984375 3.078125 C 30.453125 4.460938 27.070312 5.15625 23.84375 5.15625 C 20.207031 5.15625 16.753906 4.429688 13.484375 2.984375 C 10.222656 1.535156 7.363281 -0.734375 4.90625 -3.828125 C 2.445312 -6.929688 0.492188 -10.90625 -0.953125 -15.75 C -2.398438 -20.601562 -3.125 -26.398438 -3.125 -33.140625 C -3.125 -40.679688 -2.28125 -48.425781 -0.59375 -56.375 C 1.082031 -64.320312 3.398438 -72.203125 6.359375 -80.015625 C 9.328125 -87.828125 12.863281 -95.472656 16.96875 -102.953125 C 21.082031 -110.429688 25.5625 -117.488281 30.40625 -124.125 C 35.257812 -130.757812 40.410156 -136.851562 45.859375 -142.40625 C 51.316406 -147.96875 56.875 -152.769531 62.53125 -156.8125 C 68.195312 -160.851562 73.875 -164 79.5625 -166.25 C 85.257812 -168.507812 90.800781 -169.640625 96.1875 -169.640625 C 101.84375 -169.640625 106.367188 -168.207031 109.765625 -165.34375 C 113.171875 -162.476562 114.875 -158.421875 114.875 -153.171875 C 114.875 -150.335938 114.285156 -147.59375 113.109375 -144.9375 C 111.929688 -142.28125 110.347656 -139.71875 108.359375 -137.25 C 106.367188 -134.789062 104.128906 -132.46875 101.640625 -130.28125 C 99.148438 -128.09375 96.609375 -126.085938 94.015625 -124.265625 C 91.421875 -122.453125 88.859375 -120.835938 86.328125 -119.421875 C 83.804688 -118.003906 81.566406 -116.828125 79.609375 -115.890625 L 76.578125 -120.03125 C 79.140625 -121.3125 81.9375 -123.128906 84.96875 -125.484375 C 88 -127.835938 90.828125 -130.5 93.453125 -133.46875 C 96.085938 -136.4375 98.28125 -139.632812 100.03125 -143.0625 C 101.78125 -146.5 102.65625 -149.9375 102.65625 -153.375 C 102.65625 -156.269531 101.894531 -158.675781 100.375 -160.59375 C 98.863281 -162.507812 96.457031 -163.46875 93.15625 -163.46875 C 88.03125 -163.46875 82.554688 -161.882812 76.734375 -158.71875 C 70.910156 -155.5625 65.117188 -151.148438 59.359375 -145.484375 C 53.597656 -139.828125 48.085938 -133.078125 42.828125 -125.234375 C 37.578125 -117.390625 32.929688 -108.785156 28.890625 -99.421875 C 24.847656 -90.054688 21.613281 -80.117188 19.1875 -69.609375 C 16.769531 -59.109375 15.5625 -48.332031 15.5625 -37.28125 C 15.5625 -32.425781 15.914062 -28.078125 16.625 -24.234375 C 17.332031 -20.398438 18.34375 -17.148438 19.65625 -14.484375 C 20.96875 -11.828125 22.582031 -9.773438 24.5 -8.328125 C 26.414062 -6.878906 28.585938 -6.15625 31.015625 -6.15625 C 33.984375 -6.15625 37.21875 -7.066406 40.71875 -8.890625 C 44.21875 -10.710938 47.734375 -13.171875 51.265625 -16.265625 C 54.804688 -19.367188 58.296875 -22.957031 61.734375 -27.03125 C 65.171875 -31.101562 68.335938 -35.394531 71.234375 -39.90625 C 74.128906 -44.414062 76.65625 -48.992188 78.8125 -53.640625 C 80.96875 -58.296875 82.550781 -62.710938 83.5625 -66.890625 C 83.957031 -71.804688 84.359375 -76.300781 84.765625 -80.375 C 85.171875 -84.445312 85.554688 -88.03125 85.921875 -91.125 C 86.296875 -94.226562 86.648438 -96.738281 86.984375 -98.65625 C 87.328125 -100.582031 87.632812 -101.847656 87.90625 -102.453125 C 88.4375 -103.460938 89.207031 -104.472656 90.21875 -105.484375 C 91.226562 -106.492188 92.320312 -107.382812 93.5 -108.15625 C 94.6875 -108.9375 95.851562 -109.5625 97 -110.03125 C 98.144531 -110.5 99.117188 -110.734375 99.921875 -110.734375 C 101.003906 -110.734375 101.726562 -110.296875 102.09375 -109.421875 C 102.46875 -108.546875 102.65625 -107.601562 102.65625 -106.59375 C 102.65625 -103.625 102.148438 -99.679688 101.140625 -94.765625 C 100.128906 -89.847656 98.847656 -84.125 97.296875 -77.59375 C 96.617188 -74.769531 96.128906 -71.050781 95.828125 -66.4375 C 95.523438 -61.820312 95.320312 -56.898438 95.21875 -51.671875 C 95.125 -46.453125 95.078125 -41.195312 95.078125 -35.90625 C 95.078125 -30.625 95.039062 -25.894531 94.96875 -21.71875 C 99.957031 -25.351562 103.945312 -29.109375 106.9375 -32.984375 C 109.9375 -36.859375 112.210938 -40.347656 113.765625 -43.453125 L 114.875 -45.5625 L 119.015625 -42.4375 Z M 80.328125 -5.15625 C 77.160156 -2.664062 74.257812 -0.0390625 71.625 2.71875 C 69 5.488281 66.757812 8.457031 64.90625 11.625 C 63.0625 14.789062 61.613281 18.238281 60.5625 21.96875 C 59.519531 25.707031 59 29.769531 59 34.15625 C 59 38.332031 59.671875 41.445312 61.015625 43.5 C 62.367188 45.550781 64.085938 46.578125 66.171875 46.578125 C 68.265625 46.578125 70.171875 45.679688 71.890625 43.890625 C 73.609375 42.109375 75.085938 39.179688 76.328125 35.109375 C 77.578125 31.035156 78.554688 25.695312 79.265625 19.09375 C 79.972656 12.488281 80.328125 4.40625 80.328125 -5.15625 Z M 80.328125 -5.15625 "/></g></g></g><g clip-path="url(#3ee056b7b4)"><rect x="-37.5" width="450" fill="#ffffff" y="-37.499999" height="449.999989" fill-opacity="1"/></g><g clip-path="url(#555340876a)"><g clip-path="url(#be97bf3747)"><path fill="#000000" d="M 16.960938 16.960938 L 358.039062 16.960938 L 358.039062 358.039062 L 16.960938 358.039062 Z M 16.960938 16.960938 " fill-opacity="1" fill-rule="nonzero"/></g></g><g fill="#ffffff" fill-opacity="1"><g transform="translate(54.250775, 270.374986)"><g><path d="M 123.109375 -144 C 123.109375 -137.769531 121.882812 -131.910156 119.4375 -126.421875 C 116.988281 -120.929688 113.890625 -115.875 110.140625 -111.25 C 106.398438 -106.632812 102.304688 -102.453125 97.859375 -98.703125 C 93.421875 -94.960938 89.207031 -91.726562 85.21875 -89 C 90.820312 -88.507812 96.40625 -87.160156 101.96875 -84.953125 C 107.53125 -82.753906 112.53125 -79.710938 116.96875 -75.828125 C 121.414062 -71.941406 125.019531 -67.253906 127.78125 -61.765625 C 130.550781 -56.273438 131.9375 -50.03125 131.9375 -43.03125 C 131.9375 -37.289062 131.113281 -32.128906 129.46875 -27.546875 C 127.820312 -22.960938 125.632812 -18.867188 122.90625 -15.265625 C 120.175781 -11.660156 117.078125 -8.5625 113.609375 -5.96875 C 110.148438 -3.382812 106.632812 -1.253906 103.0625 0.421875 C 99.5 2.097656 95.984375 3.335938 92.515625 4.140625 C 89.054688 4.953125 86 5.359375 83.34375 5.359375 C 76.625 5.359375 71.039062 4.550781 66.59375 2.9375 C 62.15625 1.332031 58.625 -0.640625 56 -2.984375 C 53.375 -5.328125 51.535156 -7.796875 50.484375 -10.390625 C 49.429688 -12.984375 48.90625 -15.257812 48.90625 -17.21875 C 48.90625 -20.21875 49.550781 -23.097656 50.84375 -25.859375 C 52.144531 -28.628906 53.878906 -31.132812 56.046875 -33.375 C 58.210938 -35.613281 60.726562 -37.585938 63.59375 -39.296875 C 66.46875 -41.015625 69.445312 -42.332031 72.53125 -43.25 L 74.734375 -39.78125 C 70.328125 -37.394531 67.070312 -34.332031 64.96875 -30.59375 C 62.863281 -26.851562 61.8125 -23.09375 61.8125 -19.3125 C 61.8125 -17.207031 62.25 -15.019531 63.125 -12.75 C 64 -10.476562 65.328125 -8.394531 67.109375 -6.5 C 68.898438 -4.613281 71.140625 -3.054688 73.828125 -1.828125 C 76.523438 -0.609375 79.695312 0 83.34375 0 C 88.65625 0 93.617188 -0.992188 98.234375 -2.984375 C 102.859375 -4.984375 106.863281 -7.75 110.25 -11.28125 C 113.644531 -14.8125 116.304688 -18.957031 118.234375 -23.71875 C 120.160156 -28.476562 121.125 -33.625 121.125 -39.15625 C 121.125 -44.820312 119.953125 -49.820312 117.609375 -54.15625 C 115.265625 -58.5 112.148438 -62.15625 108.265625 -65.125 C 104.378906 -68.101562 99.898438 -70.359375 94.828125 -71.890625 C 89.753906 -73.429688 84.488281 -74.203125 79.03125 -74.203125 C 76.789062 -74.203125 74.585938 -74.078125 72.421875 -73.828125 C 70.253906 -73.585938 68.207031 -73.273438 66.28125 -72.890625 C 64.351562 -72.503906 62.617188 -72.132812 61.078125 -71.78125 C 59.546875 -71.4375 58.359375 -71.160156 57.515625 -70.953125 L 56.46875 -72 L 66.125 -87.015625 C 66.894531 -87.222656 67.769531 -87.46875 68.75 -87.75 C 69.582031 -87.957031 70.59375 -88.179688 71.78125 -88.421875 C 72.976562 -88.671875 74.3125 -88.863281 75.78125 -89 C 79.132812 -91.03125 82.648438 -93.601562 86.328125 -96.71875 C 90.003906 -99.832031 93.363281 -103.4375 96.40625 -107.53125 C 99.445312 -111.625 101.960938 -116.222656 103.953125 -121.328125 C 105.953125 -126.441406 106.953125 -132.003906 106.953125 -138.015625 C 106.953125 -148.160156 104.535156 -155.820312 99.703125 -161 C 94.878906 -166.175781 87.988281 -168.765625 79.03125 -168.765625 C 73.851562 -168.765625 68.640625 -167.660156 63.390625 -165.453125 C 58.140625 -163.253906 53.082031 -159.878906 48.21875 -155.328125 C 43.363281 -150.785156 38.816406 -145.050781 34.578125 -138.125 C 30.347656 -131.195312 26.675781 -123.046875 23.5625 -113.671875 C 20.445312 -104.296875 17.976562 -93.625 16.15625 -81.65625 C 14.34375 -69.6875 13.4375 -56.425781 13.4375 -41.875 C 13.4375 -35.863281 13.695312 -30.300781 14.21875 -25.1875 C 14.75 -20.082031 15.554688 -15.65625 16.640625 -11.90625 C 17.722656 -8.164062 19.066406 -5.242188 20.671875 -3.140625 C 22.285156 -1.046875 24.175781 0 26.34375 0 C 28.507812 0 30.238281 -1.585938 31.53125 -4.765625 C 32.832031 -7.953125 33.8125 -12.117188 34.46875 -17.265625 C 35.132812 -22.410156 35.554688 -28.164062 35.734375 -34.53125 C 35.910156 -40.894531 36 -47.296875 36 -53.734375 C 36 -63.535156 35.859375 -72.753906 35.578125 -81.390625 C 35.296875 -90.035156 35 -97.75 34.6875 -104.53125 C 34.375 -111.320312 34.078125 -116.988281 33.796875 -121.53125 C 33.515625 -126.082031 33.335938 -129.128906 33.265625 -130.671875 L 45.453125 -134.34375 C 45.796875 -133.78125 46.28125 -132.097656 46.90625 -129.296875 C 47.539062 -126.503906 48.171875 -122.816406 48.796875 -118.234375 C 49.429688 -113.648438 49.972656 -108.332031 50.421875 -102.28125 C 50.878906 -96.226562 51.109375 -89.703125 51.109375 -82.703125 C 51.109375 -70.878906 50.773438 -60.503906 50.109375 -51.578125 C 49.453125 -42.660156 48.523438 -34.929688 47.328125 -28.390625 C 46.140625 -21.847656 44.757812 -16.40625 43.1875 -12.0625 C 41.613281 -7.726562 39.898438 -4.285156 38.046875 -1.734375 C 36.191406 0.816406 34.265625 2.632812 32.265625 3.71875 C 30.273438 4.8125 28.300781 5.359375 26.34375 5.359375 C 22.070312 5.359375 18.238281 3.90625 14.84375 1 C 11.457031 -1.90625 8.570312 -5.753906 6.1875 -10.546875 C 3.8125 -15.335938 1.992188 -20.828125 0.734375 -27.015625 C -0.523438 -33.210938 -1.15625 -39.601562 -1.15625 -46.1875 C -1.15625 -55.625 -0.28125 -65.378906 1.46875 -75.453125 C 3.21875 -85.535156 5.804688 -95.382812 9.234375 -105 C 12.660156 -114.625 16.894531 -123.753906 21.9375 -132.390625 C 26.976562 -141.035156 32.785156 -148.59375 39.359375 -155.0625 C 45.929688 -161.539062 53.257812 -166.6875 61.34375 -170.5 C 69.425781 -174.3125 78.191406 -176.21875 87.640625 -176.21875 C 93.023438 -176.21875 97.90625 -175.5 102.28125 -174.0625 C 106.65625 -172.632812 110.378906 -170.535156 113.453125 -167.765625 C 116.535156 -165.003906 118.914062 -161.628906 120.59375 -157.640625 C 122.269531 -153.648438 123.109375 -149.101562 123.109375 -144 Z M 123.109375 -144 "/></g></g><g transform="translate(201.404282, 270.374986)"><g><path d="M 122.484375 -41.875 C 121.015625 -39.007812 119.316406 -36.296875 117.390625 -33.734375 C 115.472656 -31.179688 113.460938 -28.835938 111.359375 -26.703125 C 109.265625 -24.578125 107.164062 -22.617188 105.0625 -20.828125 C 102.957031 -19.046875 101.035156 -17.488281 99.296875 -16.15625 L 99.296875 -4.09375 C 99.296875 5.070312 98.578125 13.222656 97.140625 20.359375 C 95.703125 27.492188 93.632812 33.546875 90.9375 38.515625 C 88.25 43.484375 85.03125 47.257812 81.28125 49.84375 C 77.539062 52.4375 73.363281 53.734375 68.75 53.734375 C 66.226562 53.734375 63.914062 53.222656 61.8125 52.203125 C 59.71875 51.191406 57.914062 49.8125 56.40625 48.0625 C 54.90625 46.320312 53.734375 44.28125 52.890625 41.9375 C 52.054688 39.59375 51.640625 37.085938 51.640625 34.421875 C 51.640625 29.316406 52.492188 24.613281 54.203125 20.3125 C 55.921875 16.007812 58.25 11.945312 61.1875 8.125 C 64.125 4.3125 67.515625 0.675781 71.359375 -2.78125 C 75.210938 -6.25 79.3125 -9.695312 83.65625 -13.125 C 83.71875 -16.96875 83.835938 -20.78125 84.015625 -24.5625 C 84.191406 -28.34375 84.367188 -31.910156 84.546875 -35.265625 C 84.722656 -38.617188 84.894531 -41.660156 85.0625 -44.390625 C 85.238281 -47.117188 85.398438 -49.359375 85.546875 -51.109375 C 83.160156 -46.285156 80.476562 -41.546875 77.5 -36.890625 C 74.53125 -32.234375 71.363281 -27.804688 68 -23.609375 C 64.644531 -19.410156 61.128906 -15.546875 57.453125 -12.015625 C 53.785156 -8.484375 50.097656 -5.421875 46.390625 -2.828125 C 42.679688 -0.242188 38.988281 1.765625 35.3125 3.203125 C 31.644531 4.640625 28.128906 5.359375 24.765625 5.359375 C 20.992188 5.359375 17.410156 4.601562 14.015625 3.09375 C 10.617188 1.59375 7.644531 -0.765625 5.09375 -3.984375 C 2.539062 -7.203125 0.515625 -11.332031 -0.984375 -16.375 C -2.492188 -21.414062 -3.25 -27.429688 -3.25 -34.421875 C -3.25 -42.265625 -2.375 -50.3125 -0.625 -58.5625 C 1.125 -66.820312 3.535156 -75.007812 6.609375 -83.125 C 9.691406 -91.238281 13.363281 -99.179688 17.625 -106.953125 C 21.894531 -114.722656 26.550781 -122.050781 31.59375 -128.9375 C 36.632812 -135.832031 41.988281 -142.164062 47.65625 -147.9375 C 53.320312 -153.707031 59.09375 -158.691406 64.96875 -162.890625 C 70.84375 -167.085938 76.734375 -170.359375 82.640625 -172.703125 C 88.554688 -175.046875 94.316406 -176.21875 99.921875 -176.21875 C 105.796875 -176.21875 110.5 -174.726562 114.03125 -171.75 C 117.570312 -168.78125 119.34375 -164.566406 119.34375 -159.109375 C 119.34375 -156.171875 118.726562 -153.320312 117.5 -150.5625 C 116.269531 -147.800781 114.625 -145.140625 112.5625 -142.578125 C 110.5 -140.023438 108.171875 -137.613281 105.578125 -135.34375 C 102.992188 -133.070312 100.351562 -130.988281 97.65625 -129.09375 C 94.96875 -127.207031 92.3125 -125.53125 89.6875 -124.0625 C 87.0625 -122.59375 84.734375 -121.367188 82.703125 -120.390625 L 79.5625 -124.6875 C 82.21875 -126.019531 85.117188 -127.910156 88.265625 -130.359375 C 91.421875 -132.804688 94.359375 -135.566406 97.078125 -138.640625 C 99.804688 -141.722656 102.082031 -145.046875 103.90625 -148.609375 C 105.726562 -152.179688 106.640625 -155.753906 106.640625 -159.328125 C 106.640625 -162.335938 105.847656 -164.835938 104.265625 -166.828125 C 102.691406 -168.828125 100.191406 -169.828125 96.765625 -169.828125 C 91.453125 -169.828125 85.769531 -168.179688 79.71875 -164.890625 C 73.664062 -161.597656 67.644531 -157.015625 61.65625 -151.140625 C 55.675781 -145.265625 49.957031 -138.25 44.5 -130.09375 C 39.039062 -121.945312 34.210938 -113.007812 30.015625 -103.28125 C 25.816406 -93.550781 22.457031 -83.226562 19.9375 -72.3125 C 17.414062 -61.394531 16.15625 -50.203125 16.15625 -38.734375 C 16.15625 -33.691406 16.523438 -29.175781 17.265625 -25.1875 C 18.003906 -21.195312 19.050781 -17.820312 20.40625 -15.0625 C 21.769531 -12.300781 23.445312 -10.164062 25.4375 -8.65625 C 27.4375 -7.15625 29.695312 -6.40625 32.21875 -6.40625 C 35.300781 -6.40625 38.660156 -7.347656 42.296875 -9.234375 C 45.929688 -11.117188 49.585938 -13.671875 53.265625 -16.890625 C 56.941406 -20.109375 60.5625 -23.832031 64.125 -28.0625 C 67.695312 -32.300781 70.988281 -36.765625 74 -41.453125 C 77.007812 -46.140625 79.628906 -50.894531 81.859375 -55.71875 C 84.097656 -60.550781 85.742188 -65.140625 86.796875 -69.484375 C 87.210938 -74.585938 87.628906 -79.253906 88.046875 -83.484375 C 88.472656 -87.722656 88.878906 -91.453125 89.265625 -94.671875 C 89.648438 -97.890625 90.015625 -100.492188 90.359375 -102.484375 C 90.710938 -104.484375 91.03125 -105.796875 91.3125 -106.421875 C 91.875 -107.472656 92.675781 -108.523438 93.71875 -109.578125 C 94.769531 -110.628906 95.90625 -111.554688 97.125 -112.359375 C 98.351562 -113.160156 99.5625 -113.804688 100.75 -114.296875 C 101.945312 -114.785156 102.960938 -115.03125 103.796875 -115.03125 C 104.921875 -115.03125 105.675781 -114.570312 106.0625 -113.65625 C 106.445312 -112.75 106.640625 -111.773438 106.640625 -110.734375 C 106.640625 -107.648438 106.113281 -103.550781 105.0625 -98.4375 C 104.007812 -93.332031 102.679688 -87.390625 101.078125 -80.609375 C 100.378906 -77.671875 99.867188 -73.800781 99.546875 -69 C 99.234375 -64.207031 99.023438 -59.097656 98.921875 -53.671875 C 98.816406 -48.253906 98.765625 -42.800781 98.765625 -37.3125 C 98.765625 -31.820312 98.726562 -26.90625 98.65625 -22.5625 C 103.832031 -26.34375 107.976562 -30.242188 111.09375 -34.265625 C 114.207031 -38.285156 116.570312 -41.90625 118.1875 -45.125 L 119.34375 -47.328125 L 123.640625 -44.078125 Z M 83.4375 -5.359375 C 80.15625 -2.765625 77.148438 -0.0351562 74.421875 2.828125 C 71.691406 5.703125 69.363281 8.78125 67.4375 12.0625 C 65.507812 15.351562 64.003906 18.941406 62.921875 22.828125 C 61.835938 26.710938 61.296875 30.925781 61.296875 35.46875 C 61.296875 39.8125 61.992188 43.050781 63.390625 45.1875 C 64.796875 47.320312 66.582031 48.390625 68.75 48.390625 C 70.914062 48.390625 72.890625 47.460938 74.671875 45.609375 C 76.460938 43.753906 78.003906 40.707031 79.296875 36.46875 C 80.585938 32.238281 81.597656 26.691406 82.328125 19.828125 C 83.066406 12.972656 83.4375 4.578125 83.4375 -5.359375 Z M 83.4375 -5.359375 "/></g></g></g></svg>